<svg xmlns="http://www.w3.org/2000/svg" xmlns:xlink="http://www.w3.org/1999/xlink" zoomAndPan="magnify" viewBox="0 0 375 374.999991" height="500" preserveAspectRatio="xMidYMid meet" version="1.0"><defs><clipPath id="24e3309d25"><path d="M 147 99.023438 L 223 99.023438 L 223 149 L 147 149 Z M 147 99.023438 " clip-rule="nonzero"/></clipPath><clipPath id="059de107a5"><path d="M 118.699219 179 L 255.949219 179 L 255.949219 200 L 118.699219 200 Z M 118.699219 179 " clip-rule="nonzero"/></clipPath><clipPath id="6cdeda8cfd"><path d="M 124.835938 193.273438 L 245.445312 193.273438 L 245.445312 208.507812 L 124.835938 208.507812 Z M 124.835938 193.273438 " clip-rule="nonzero"/></clipPath></defs><g clip-path="url(#24e3309d25)"><path fill="#0077b6" d="M 149.152344 140.898438 C 149.152344 120.992188 165.257812 104.855469 185.121094 104.855469 C 204.988281 104.855469 221.09375 120.992188 221.09375 140.898438 C 221.09375 143.433594 220.832031 145.910156 220.332031 148.300781 C 221.613281 144.527344 222.3125 140.484375 222.3125 136.28125 C 222.3125 115.703125 205.660156 99.019531 185.121094 99.019531 C 164.585938 99.019531 147.933594 115.703125 147.933594 136.28125 C 147.933594 140.484375 148.628906 144.527344 149.914062 148.300781 C 149.414062 145.910156 149.152344 143.433594 149.152344 140.898438 " fill-opacity="1" fill-rule="nonzero"/></g><path fill="#1c7388" d="M 184.171875 157.101562 L 176.898438 157.101562 L 176.898438 149.816406 L 184.171875 149.816406 L 184.171875 157.101562 " fill-opacity="1" fill-rule="nonzero"/><path fill="#1c7388" d="M 193.347656 157.101562 L 186.074219 157.101562 L 186.074219 149.816406 L 193.347656 149.816406 L 193.347656 157.101562 " fill-opacity="1" fill-rule="nonzero"/><path fill="#1c7388" d="M 184.171875 166.0625 L 176.898438 166.0625 L 176.898438 158.777344 L 184.171875 158.777344 L 184.171875 166.0625 " fill-opacity="1" fill-rule="nonzero"/><path fill="#1c7388" d="M 193.347656 166.0625 L 186.074219 166.0625 L 186.074219 158.777344 L 193.347656 158.777344 L 193.347656 166.0625 " fill-opacity="1" fill-rule="nonzero"/><path fill="#1c7388" d="M 185.121094 130.816406 L 228.269531 174.046875 L 239.339844 174.046875 L 185.121094 119.722656 L 130.90625 174.046875 L 141.976562 174.046875 L 185.121094 130.816406 " fill-opacity="1" fill-rule="nonzero"/><path fill="#00a850" d="M 185.121094 133.328125 L 162.070312 156.824219 L 185.121094 136.507812 L 208.179688 156.824219 L 185.121094 133.328125 " fill-opacity="1" fill-rule="nonzero"/><g clip-path="url(#059de107a5)"><path fill="#0077b6" d="M 255.859375 179.988281 C 255.859375 179.988281 255.546875 180.394531 254.957031 181.167969 C 254.371094 181.953125 253.449219 183.054688 252.179688 184.4375 C 251.53125 185.101562 250.824219 185.875 249.96875 186.632812 C 249.546875 187.015625 249.125 187.441406 248.640625 187.835938 C 248.160156 188.230469 247.65625 188.644531 247.140625 189.074219 C 245.023438 190.726562 242.449219 192.445312 239.382812 193.996094 C 234.074219 196.722656 227.230469 198.714844 219.601562 199.511719 L 212.644531 199.90625 C 212.140625 199.917969 211.628906 199.921875 211.117188 199.921875 C 203.519531 199.921875 195.480469 199 187.359375 197.605469 C 177.402344 195.90625 168.179688 193.785156 159.816406 192.417969 C 159.449219 192.359375 159.085938 192.300781 158.726562 192.242188 C 156.328125 191.855469 154.003906 191.542969 151.761719 191.3125 C 150.46875 191.175781 149.203125 191.066406 147.960938 190.984375 C 146.398438 190.894531 144.878906 190.847656 143.421875 190.847656 C 141.40625 190.847656 139.488281 190.941406 137.6875 191.148438 C 134.574219 191.5 131.789062 192.132812 129.410156 192.941406 C 127.023438 193.75 125.050781 194.726562 123.480469 195.613281 C 122.703125 196.074219 121.996094 196.484375 121.433594 196.890625 C 120.855469 197.277344 120.355469 197.605469 119.972656 197.914062 C 119.195312 198.5 118.789062 198.808594 118.789062 198.808594 C 118.789062 198.808594 119.113281 198.410156 119.722656 197.660156 C 120.019531 197.273438 120.433594 196.832031 120.929688 196.304688 C 121.414062 195.761719 122.019531 195.195312 122.710938 194.558594 C 124.117188 193.308594 125.953125 191.867188 128.324219 190.53125 C 130.679688 189.1875 133.566406 187.964844 136.886719 187.046875 C 140.203125 186.105469 143.941406 185.546875 147.945312 185.261719 C 149.191406 185.183594 150.46875 185.136719 151.761719 185.121094 C 152.191406 185.117188 152.617188 185.109375 153.042969 185.109375 C 154.902344 185.109375 156.792969 185.167969 158.726562 185.277344 C 159.363281 185.316406 159.992188 185.355469 160.632812 185.402344 C 169.5 186.042969 178.988281 187.6875 188.753906 189.355469 C 197.214844 190.804688 205.238281 192.070312 212.644531 192.550781 C 213.789062 192.628906 214.921875 192.683594 216.035156 192.71875 C 217.039062 192.753906 218.039062 192.769531 219.023438 192.769531 C 219.214844 192.769531 219.410156 192.769531 219.601562 192.765625 C 226.492188 192.71875 232.675781 191.78125 237.800781 190.121094 C 240.800781 189.167969 243.441406 188.011719 245.703125 186.851562 C 247.953125 185.664062 249.828125 184.480469 251.332031 183.441406 C 252.820312 182.398438 253.960938 181.535156 254.703125 180.917969 C 255.460938 180.304688 255.859375 179.988281 255.859375 179.988281 " fill-opacity="1" fill-rule="nonzero"/></g><path fill="#0077b6" d="M 212.644531 199.90625 C 213.824219 199.890625 214.980469 199.851562 216.132812 199.78125 C 217.308594 199.71875 218.460938 199.628906 219.601562 199.511719 L 212.644531 199.90625 " fill-opacity="1" fill-rule="nonzero"/><g clip-path="url(#6cdeda8cfd)"><path fill="#0077b6" d="M 124.878906 198.476562 C 124.878906 198.476562 125.238281 198.226562 125.925781 197.75 C 126.269531 197.515625 126.722656 197.265625 127.25 196.945312 C 127.515625 196.789062 127.816406 196.648438 128.128906 196.484375 C 128.445312 196.320312 128.78125 196.148438 129.152344 195.996094 C 130.609375 195.335938 132.484375 194.679688 134.730469 194.21875 C 136.976562 193.757812 139.589844 193.480469 142.472656 193.480469 C 148.253906 193.460938 155.042969 194.539062 162.371094 196.167969 C 169.707031 197.785156 177.617188 199.933594 185.945312 201.746094 C 194.269531 203.574219 202.257812 204.785156 209.558594 204.941406 C 213.210938 205.015625 216.675781 204.847656 219.902344 204.46875 C 223.128906 204.085938 226.105469 203.480469 228.789062 202.765625 C 231.476562 202.054688 233.859375 201.226562 235.917969 200.386719 C 236.960938 199.996094 237.890625 199.546875 238.769531 199.171875 C 239.632812 198.753906 240.417969 198.375 241.128906 198.035156 C 241.824219 197.667969 242.441406 197.339844 242.980469 197.054688 C 243.515625 196.773438 243.957031 196.503906 244.320312 196.300781 C 245.042969 195.886719 245.421875 195.671875 245.421875 195.671875 C 245.421875 195.671875 245.074219 195.941406 244.417969 196.449219 C 244.082031 196.699219 243.683594 197.03125 243.1875 197.382812 C 242.683594 197.734375 242.109375 198.140625 241.457031 198.601562 C 240.789062 199.03125 240.050781 199.515625 239.226562 200.027344 C 238.382812 200.511719 237.488281 201.074219 236.476562 201.589844 C 234.480469 202.667969 232.121094 203.769531 229.421875 204.761719 C 226.722656 205.753906 223.683594 206.644531 220.347656 207.296875 C 217.015625 207.941406 213.394531 208.347656 209.574219 208.472656 C 201.933594 208.710938 193.5625 207.703125 185.0625 205.839844 C 176.546875 203.980469 168.675781 201.570312 161.519531 199.59375 C 154.375 197.605469 147.90625 196.066406 142.382812 195.574219 C 139.625 195.316406 137.117188 195.324219 134.929688 195.53125 C 132.738281 195.730469 130.871094 196.144531 129.382812 196.609375 C 129.003906 196.710938 128.65625 196.835938 128.332031 196.957031 C 128.007812 197.078125 127.695312 197.175781 127.417969 197.292969 C 126.867188 197.535156 126.386719 197.71875 126.015625 197.90625 C 125.269531 198.277344 124.878906 198.476562 124.878906 198.476562 " fill-opacity="1" fill-rule="nonzero"/></g><path fill="#00a850" d="M 219.453125 140.367188 C 219.453125 121.367188 204.082031 105.96875 185.121094 105.96875 C 166.160156 105.96875 150.792969 121.367188 150.792969 140.367188 C 150.792969 140.695312 150.808594 141.023438 150.816406 141.351562 C 151.351562 122.824219 166.5 107.964844 185.121094 107.964844 C 203.746094 107.964844 218.894531 122.824219 219.429688 141.351562 C 219.4375 141.023438 219.453125 140.695312 219.453125 140.367188 " fill-opacity="1" fill-rule="nonzero"/></svg>